<svg width="800" height="1065">
    <path stroke="white" fill="white" d="M 0, 0
	L 200, 0
	C 200,0 170.0,106.5 200, 85.2 S 229.99999999999997,149.1 200,127.8 S 200,213 200,213
	C 200,213 100.0,181.04999999999998 120.0,213 S 60.0,244.95 80.0,213 S 0,213 0,213
	z" />
	<path stroke="white" fill="white" d="M 200, 0
	L 400, 0
	C 400,0 430.0,106.5 400, 85.2 S 370.0,149.1 400,127.8 S 400,213 400,213
	C 400,213 300.0,244.95 320.0,213 S 260.0,181.04999999999998 280.0,213 S 200,213 200,213
	C 200,213 170.0,106.5 200, 127.8 S 229.99999999999997,63.900000000000006 200,85.2 S 200,0 200,0
	z" />
	<path stroke="white" fill="white" d="M 400, 0
	L 600, 0
	C 600,0 570.0,106.5 600, 85.2 S 630.0,149.1 600,127.8 S 600,213 600,213
	C 600,213 500.0,181.04999999999998 520.0,213 S 460.0,244.95 480.0,213 S 400,213 400,213
	C 400,213 430.0,106.5 400, 127.8 S 370.0,63.900000000000006 400,85.2 S 400,0 400,0
	z" />
	<path stroke="white" fill="white" d="M 600, 0
	L 800, 0
	L 800,213
	C 800,213 700.0,244.95 720.0,213 S 660.0,181.04999999999998 680.0,213 S 600,213 600,213
	C 600,213 570.0,106.5 600, 127.8 S 630.0,63.900000000000006 600,85.2 S 600,0 600,0
	z" />
	<path stroke="white" fill="white" d="M 0, 213
	C 0,213 100.0,181.04999999999998 80.0,213 S 140.0,244.95 120.0,213 S 200,213 200,213
	C 200,213 170.0,319.5 200, 298.2 S 229.99999999999997,362.1 200,340.79999999999995 S 200,426 200,426
	C 200,426 100.0,394.04999999999995 120.0,426 S 60.0,457.95 80.0,426 S 0,426 0,426
	z" />
	<path stroke="white" fill="white" d="M 200, 213
	C 200,213 300.0,244.95 280.0,213 S 340.0,181.04999999999998 320.0,213 S 400,213 400,213
	C 400,213 370.0,319.5 400, 298.2 S 430.0,362.1 400,340.79999999999995 S 400,426 400,426
	C 400,426 300.0,394.04999999999995 320.0,426 S 260.0,457.95 280.0,426 S 200,426 200,426
	C 200,426 170.0,319.5 200, 340.79999999999995 S 229.99999999999997,276.9 200,298.2 S 200,213 200,213
	z" />
	<path stroke="white" fill="white" d="M 400, 213
	C 400,213 500.0,181.04999999999998 480.0,213 S 540.0,244.95 520.0,213 S 600,213 600,213
	C 600,213 570.0,319.5 600, 298.2 S 630.0,362.1 600,340.79999999999995 S 600,426 600,426
	C 600,426 500.0,394.04999999999995 520.0,426 S 460.0,457.95 480.0,426 S 400,426 400,426
	C 400,426 370.0,319.5 400, 340.79999999999995 S 430.0,276.9 400,298.2 S 400,213 400,213
	z" />
	<path stroke="white" fill="white" d="M 600, 213
	C 600,213 700.0,244.95 680.0,213 S 740.0,181.04999999999998 720.0,213 S 800,213 800,213
	L 800,426
	C 800,426 700.0,394.04999999999995 720.0,426 S 660.0,457.95 680.0,426 S 600,426 600,426
	C 600,426 570.0,319.5 600, 340.79999999999995 S 630.0,276.9 600,298.2 S 600,213 600,213
	z" />
	<path stroke="white" fill="white" d="M 0, 426
	C 0,426 100.0,394.04999999999995 80.0,426 S 140.0,457.95 120.0,426 S 200,426 200,426
	C 200,426 229.99999999999997,532.5 200, 511.2 S 170.0,575.1 200,553.8 S 200,639 200,639
	C 200,639 100.0,670.95 120.0,639 S 60.0,607.05 80.0,639 S 0,639 0,639
	z" />
	<path stroke="white" fill="white" d="M 200, 426
	C 200,426 300.0,394.04999999999995 280.0,426 S 340.0,457.95 320.0,426 S 400,426 400,426
	C 400,426 430.0,532.5 400, 511.2 S 370.0,575.1 400,553.8 S 400,639 400,639
	C 400,639 300.0,670.95 320.0,639 S 260.0,607.05 280.0,639 S 200,639 200,639
	C 200,639 229.99999999999997,532.5 200, 553.8 S 170.0,489.9 200,511.2 S 200,426 200,426
	z" />
	<path stroke="white" fill="white" d="M 400, 426
	C 400,426 500.0,394.04999999999995 480.0,426 S 540.0,457.95 520.0,426 S 600,426 600,426
	C 600,426 630.0,532.5 600, 511.2 S 570.0,575.1 600,553.8 S 600,639 600,639
	C 600,639 500.0,670.95 520.0,639 S 460.0,607.05 480.0,639 S 400,639 400,639
	C 400,639 430.0,532.5 400, 553.8 S 370.0,489.9 400,511.2 S 400,426 400,426
	z" />
	<path stroke="white" fill="white" d="M 600, 426
	C 600,426 700.0,394.04999999999995 680.0,426 S 740.0,457.95 720.0,426 S 800,426 800,426
	L 800,639
	C 800,639 700.0,607.05 720.0,639 S 660.0,670.95 680.0,639 S 600,639 600,639
	C 600,639 630.0,532.5 600, 553.8 S 570.0,489.9 600,511.2 S 600,426 600,426
	z" />
	<path stroke="white" fill="white" d="M 0, 639
	C 0,639 100.0,670.95 80.0,639 S 140.0,607.05 120.0,639 S 200,639 200,639
	C 200,639 229.99999999999997,745.5 200, 724.2 S 170.0,788.1 200,766.8000000000001 S 200,852 200,852
	C 200,852 100.0,883.95 120.0,852 S 60.0,820.05 80.0,852 S 0,852 0,852
	z" />
	<path stroke="white" fill="white" d="M 200, 639
	C 200,639 300.0,670.95 280.0,639 S 340.0,607.05 320.0,639 S 400,639 400,639
	C 400,639 370.0,745.5 400, 724.2 S 430.0,788.1 400,766.8000000000001 S 400,852 400,852
	C 400,852 300.0,820.05 320.0,852 S 260.0,883.95 280.0,852 S 200,852 200,852
	C 200,852 229.99999999999997,745.5 200, 766.8000000000001 S 170.0,702.9 200,724.2 S 200,639 200,639
	z" />
	<path stroke="white" fill="white" d="M 400, 639
	C 400,639 500.0,670.95 480.0,639 S 540.0,607.05 520.0,639 S 600,639 600,639
	C 600,639 570.0,745.5 600, 724.2 S 630.0,788.1 600,766.8000000000001 S 600,852 600,852
	C 600,852 500.0,820.05 520.0,852 S 460.0,883.95 480.0,852 S 400,852 400,852
	C 400,852 370.0,745.5 400, 766.8000000000001 S 430.0,702.9 400,724.2 S 400,639 400,639
	z" />
	<path stroke="white" fill="white" d="M 600, 639
	C 600,639 700.0,607.05 680.0,639 S 740.0,670.95 720.0,639 S 800,639 800,639
	L 800,852
	C 800,852 700.0,883.95 720.0,852 S 660.0,820.05 680.0,852 S 600,852 600,852
	C 600,852 570.0,745.5 600, 766.8000000000001 S 630.0,702.9 600,724.2 S 600,639 600,639
	z" />
	<path stroke="white" fill="white" d="M 0, 852
	C 0,852 100.0,883.95 80.0,852 S 140.0,820.05 120.0,852 S 200,852 200,852
	C 200,852 170.0,958.5 200, 937.2 S 229.99999999999997,1001.1 200,979.8000000000001 S 200,1065 200,1065
	L 0,1065
	z" />
	<path stroke="white" fill="white" d="M 200, 852
	C 200,852 300.0,820.05 280.0,852 S 340.0,883.95 320.0,852 S 400,852 400,852
	C 400,852 370.0,958.5 400, 937.2 S 430.0,1001.1 400,979.8000000000001 S 400,1065 400,1065
	L 200,1065
	C 200,1065 170.0,958.5 200, 979.8000000000001 S 229.99999999999997,915.9 200,937.2 S 200,852 200,852
	z" />
	<path stroke="white" fill="white" d="M 400, 852
	C 400,852 500.0,820.05 480.0,852 S 540.0,883.95 520.0,852 S 600,852 600,852
	C 600,852 570.0,958.5 600, 937.2 S 630.0,1001.1 600,979.8000000000001 S 600,1065 600,1065
	L 400,1065
	C 400,1065 370.0,958.5 400, 979.8000000000001 S 430.0,915.9 400,937.2 S 400,852 400,852
	z" />
	<path stroke="white" fill="white" d="M 600, 852
	C 600,852 700.0,883.95 680.0,852 S 740.0,820.05 720.0,852 S 800,852 800,852
	L 800,1065
	L 600,1065
	C 600,1065 570.0,958.5 600, 979.8000000000001 S 630.0,915.9 600,937.2 S 600,852 600,852
	z" />
</svg>
    