<svg width="944" height="745">
    <path stroke="white" fill="white" d="M 0, 0
	L 188, 0
	C 188,0 216.2,93.0 188, 74.4 S 159.79999999999998,130.2 188,111.6 S 188,186 188,186
	C 188,186 94.0,213.89999999999998 112.8,186 S 56.400000000000006,158.1 75.2,186 S 0,186 0,186
	z" />
	<path stroke="white" fill="white" d="M 188, 0
	L 376, 0
	C 376,0 347.79999999999995,93.0 376, 74.4 S 404.2,130.2 376,111.6 S 376,186 376,186
	C 376,186 282.0,158.1 300.79999999999995,186 S 244.4,213.89999999999998 263.2,186 S 188,186 188,186
	C 188,186 216.2,93.0 188, 111.6 S 159.79999999999998,55.80000000000001 188,74.4 S 188,0 188,0
	z" />
	<path stroke="white" fill="white" d="M 376, 0
	L 564, 0
	C 564,0 535.8,93.0 564, 74.4 S 592.2,130.2 564,111.6 S 564,186 564,186
	C 564,186 470.0,158.1 488.79999999999995,186 S 432.4,213.89999999999998 451.2,186 S 376,186 376,186
	C 376,186 347.79999999999995,93.0 376, 111.6 S 404.2,55.80000000000001 376,74.4 S 376,0 376,0
	z" />
	<path stroke="white" fill="white" d="M 564, 0
	L 752, 0
	C 752,0 723.8,93.0 752, 74.4 S 780.2,130.2 752,111.6 S 752,186 752,186
	C 752,186 658.0,158.1 676.8000000000001,186 S 620.4,213.89999999999998 639.2,186 S 564,186 564,186
	C 564,186 535.8,93.0 564, 111.6 S 592.2,55.80000000000001 564,74.4 S 564,0 564,0
	z" />
	<path stroke="white" fill="white" d="M 752, 0
	L 940, 0
	L 940,186
	C 940,186 846.0,158.1 864.8000000000001,186 S 808.4,213.89999999999998 827.2,186 S 752,186 752,186
	C 752,186 723.8,93.0 752, 111.6 S 780.2,55.80000000000001 752,74.4 S 752,0 752,0
	z" />
	<path stroke="white" fill="white" d="M 0, 186
	C 0,186 94.0,213.89999999999998 75.2,186 S 131.6,158.1 112.8,186 S 188,186 188,186
	C 188,186 216.2,279.0 188, 260.4 S 159.79999999999998,316.2 188,297.59999999999997 S 188,372 188,372
	C 188,372 94.0,399.9 112.8,372 S 56.400000000000006,344.1 75.2,372 S 0,372 0,372
	z" />
	<path stroke="white" fill="white" d="M 188, 186
	C 188,186 282.0,158.1 263.2,186 S 319.6,213.89999999999998 300.79999999999995,186 S 376,186 376,186
	C 376,186 347.79999999999995,279.0 376, 260.4 S 404.2,316.2 376,297.59999999999997 S 376,372 376,372
	C 376,372 282.0,344.1 300.79999999999995,372 S 244.4,399.9 263.2,372 S 188,372 188,372
	C 188,372 216.2,279.0 188, 297.59999999999997 S 159.79999999999998,241.8 188,260.4 S 188,186 188,186
	z" />
	<path stroke="white" fill="white" d="M 376, 186
	C 376,186 470.0,158.1 451.2,186 S 507.6,213.89999999999998 488.79999999999995,186 S 564,186 564,186
	C 564,186 592.2,279.0 564, 260.4 S 535.8,316.2 564,297.59999999999997 S 564,372 564,372
	C 564,372 470.0,399.9 488.79999999999995,372 S 432.4,344.1 451.2,372 S 376,372 376,372
	C 376,372 347.79999999999995,279.0 376, 297.59999999999997 S 404.2,241.8 376,260.4 S 376,186 376,186
	z" />
	<path stroke="white" fill="white" d="M 564, 186
	C 564,186 658.0,158.1 639.2,186 S 695.6,213.89999999999998 676.8000000000001,186 S 752,186 752,186
	C 752,186 723.8,279.0 752, 260.4 S 780.2,316.2 752,297.59999999999997 S 752,372 752,372
	C 752,372 658.0,344.1 676.8000000000001,372 S 620.4,399.9 639.2,372 S 564,372 564,372
	C 564,372 592.2,279.0 564, 297.59999999999997 S 535.8,241.8 564,260.4 S 564,186 564,186
	z" />
	<path stroke="white" fill="white" d="M 752, 186
	C 752,186 846.0,158.1 827.2,186 S 883.6,213.89999999999998 864.8000000000001,186 S 940,186 940,186
	L 940,372
	C 940,372 846.0,399.9 864.8000000000001,372 S 808.4,344.1 827.2,372 S 752,372 752,372
	C 752,372 723.8,279.0 752, 297.59999999999997 S 780.2,241.8 752,260.4 S 752,186 752,186
	z" />
	<path stroke="white" fill="white" d="M 0, 372
	C 0,372 94.0,399.9 75.2,372 S 131.6,344.1 112.8,372 S 188,372 188,372
	C 188,372 159.79999999999998,465.0 188, 446.4 S 216.2,502.2 188,483.59999999999997 S 188,558 188,558
	C 188,558 94.0,530.1 112.8,558 S 56.400000000000006,585.9 75.2,558 S 0,558 0,558
	z" />
	<path stroke="white" fill="white" d="M 188, 372
	C 188,372 282.0,344.1 263.2,372 S 319.6,399.9 300.79999999999995,372 S 376,372 376,372
	C 376,372 404.2,465.0 376, 446.4 S 347.79999999999995,502.2 376,483.59999999999997 S 376,558 376,558
	C 376,558 282.0,585.9 300.79999999999995,558 S 244.4,530.1 263.2,558 S 188,558 188,558
	C 188,558 159.79999999999998,465.0 188, 483.59999999999997 S 216.2,427.8 188,446.4 S 188,372 188,372
	z" />
	<path stroke="white" fill="white" d="M 376, 372
	C 376,372 470.0,399.9 451.2,372 S 507.6,344.1 488.79999999999995,372 S 564,372 564,372
	C 564,372 592.2,465.0 564, 446.4 S 535.8,502.2 564,483.59999999999997 S 564,558 564,558
	C 564,558 470.0,585.9 488.79999999999995,558 S 432.4,530.1 451.2,558 S 376,558 376,558
	C 376,558 404.2,465.0 376, 483.59999999999997 S 347.79999999999995,427.8 376,446.4 S 376,372 376,372
	z" />
	<path stroke="white" fill="white" d="M 564, 372
	C 564,372 658.0,344.1 639.2,372 S 695.6,399.9 676.8000000000001,372 S 752,372 752,372
	C 752,372 723.8,465.0 752, 446.4 S 780.2,502.2 752,483.59999999999997 S 752,558 752,558
	C 752,558 658.0,530.1 676.8000000000001,558 S 620.4,585.9 639.2,558 S 564,558 564,558
	C 564,558 592.2,465.0 564, 483.59999999999997 S 535.8,427.8 564,446.4 S 564,372 564,372
	z" />
	<path stroke="white" fill="white" d="M 752, 372
	C 752,372 846.0,399.9 827.2,372 S 883.6,344.1 864.8000000000001,372 S 940,372 940,372
	L 940,558
	C 940,558 846.0,530.1 864.8000000000001,558 S 808.4,585.9 827.2,558 S 752,558 752,558
	C 752,558 723.8,465.0 752, 483.59999999999997 S 780.2,427.8 752,446.4 S 752,372 752,372
	z" />
	<path stroke="white" fill="white" d="M 0, 558
	C 0,558 94.0,530.1 75.2,558 S 131.6,585.9 112.8,558 S 188,558 188,558
	C 188,558 159.79999999999998,651.0 188, 632.4 S 216.2,688.2 188,669.5999999999999 S 188,744 188,744
	L 0,744
	z" />
	<path stroke="white" fill="white" d="M 188, 558
	C 188,558 282.0,585.9 263.2,558 S 319.6,530.1 300.79999999999995,558 S 376,558 376,558
	C 376,558 347.79999999999995,651.0 376, 632.4 S 404.2,688.2 376,669.5999999999999 S 376,744 376,744
	L 188,744
	C 188,744 159.79999999999998,651.0 188, 669.5999999999999 S 216.2,613.8 188,632.4 S 188,558 188,558
	z" />
	<path stroke="white" fill="white" d="M 376, 558
	C 376,558 470.0,585.9 451.2,558 S 507.6,530.1 488.79999999999995,558 S 564,558 564,558
	C 564,558 592.2,651.0 564, 632.4 S 535.8,688.2 564,669.5999999999999 S 564,744 564,744
	L 376,744
	C 376,744 347.79999999999995,651.0 376, 669.5999999999999 S 404.2,613.8 376,632.4 S 376,558 376,558
	z" />
	<path stroke="white" fill="white" d="M 564, 558
	C 564,558 658.0,530.1 639.2,558 S 695.6,585.9 676.8000000000001,558 S 752,558 752,558
	C 752,558 723.8,651.0 752, 632.4 S 780.2,688.2 752,669.5999999999999 S 752,744 752,744
	L 564,744
	C 564,744 592.2,651.0 564, 669.5999999999999 S 535.8,613.8 564,632.4 S 564,558 564,558
	z" />
	<path stroke="white" fill="white" d="M 752, 558
	C 752,558 846.0,530.1 827.2,558 S 883.6,585.9 864.8000000000001,558 S 940,558 940,558
	L 940,744
	L 752,744
	C 752,744 723.8,651.0 752, 669.5999999999999 S 780.2,613.8 752,632.4 S 752,558 752,558
	z" />
</svg>
    