<svg width="1200" height="630">
    <path stroke="white" fill="white" d="M 0, 0
	L 150, 0
	C 150,0 172.5,63.0 150, 50.400000000000006 S 127.5,88.19999999999999 150,75.6 S 150,126 150,126
	C 150,126 75.0,144.89999999999998 90.0,126 S 45.0,107.1 60.0,126 S 0,126 0,126
	z" />
	<path stroke="white" fill="white" d="M 150, 0
	L 300, 0
	C 300,0 322.5,63.0 300, 50.400000000000006 S 277.5,88.19999999999999 300,75.6 S 300,126 300,126
	C 300,126 225.0,144.89999999999998 240.0,126 S 195.0,107.1 210.0,126 S 150,126 150,126
	C 150,126 172.5,63.0 150, 75.6 S 127.5,37.80000000000001 150,50.400000000000006 S 150,0 150,0
	z" />
	<path stroke="white" fill="white" d="M 300, 0
	L 450, 0
	C 450,0 472.5,63.0 450, 50.400000000000006 S 427.5,88.19999999999999 450,75.6 S 450,126 450,126
	C 450,126 375.0,144.89999999999998 390.0,126 S 345.0,107.1 360.0,126 S 300,126 300,126
	C 300,126 322.5,63.0 300, 75.6 S 277.5,37.80000000000001 300,50.400000000000006 S 300,0 300,0
	z" />
	<path stroke="white" fill="white" d="M 450, 0
	L 600, 0
	C 600,0 622.5,63.0 600, 50.400000000000006 S 577.5,88.19999999999999 600,75.6 S 600,126 600,126
	C 600,126 525.0,144.89999999999998 540.0,126 S 495.0,107.1 510.0,126 S 450,126 450,126
	C 450,126 472.5,63.0 450, 75.6 S 427.5,37.80000000000001 450,50.400000000000006 S 450,0 450,0
	z" />
	<path stroke="white" fill="white" d="M 600, 0
	L 750, 0
	C 750,0 772.5,63.0 750, 50.400000000000006 S 727.5,88.19999999999999 750,75.6 S 750,126 750,126
	C 750,126 675.0,144.89999999999998 690.0,126 S 645.0,107.1 660.0,126 S 600,126 600,126
	C 600,126 622.5,63.0 600, 75.6 S 577.5,37.80000000000001 600,50.400000000000006 S 600,0 600,0
	z" />
	<path stroke="white" fill="white" d="M 750, 0
	L 900, 0
	C 900,0 877.5,63.0 900, 50.400000000000006 S 922.5,88.19999999999999 900,75.6 S 900,126 900,126
	C 900,126 825.0,107.1 840.0,126 S 795.0,144.89999999999998 810.0,126 S 750,126 750,126
	C 750,126 772.5,63.0 750, 75.6 S 727.5,37.80000000000001 750,50.400000000000006 S 750,0 750,0
	z" />
	<path stroke="white" fill="white" d="M 900, 0
	L 1050, 0
	C 1050,0 1027.5,63.0 1050, 50.400000000000006 S 1072.5,88.19999999999999 1050,75.6 S 1050,126 1050,126
	C 1050,126 975.0,107.1 990.0,126 S 945.0,144.89999999999998 960.0,126 S 900,126 900,126
	C 900,126 877.5,63.0 900, 75.6 S 922.5,37.80000000000001 900,50.400000000000006 S 900,0 900,0
	z" />
	<path stroke="white" fill="white" d="M 1050, 0
	L 1200, 0
	L 1200,126
	C 1200,126 1125.0,144.89999999999998 1140.0,126 S 1095.0,107.1 1110.0,126 S 1050,126 1050,126
	C 1050,126 1027.5,63.0 1050, 75.6 S 1072.5,37.80000000000001 1050,50.400000000000006 S 1050,0 1050,0
	z" />
	<path stroke="white" fill="white" d="M 0, 126
	C 0,126 75.0,144.89999999999998 60.0,126 S 105.0,107.1 90.0,126 S 150,126 150,126
	C 150,126 127.5,189.0 150, 176.4 S 172.5,214.2 150,201.6 S 150,252 150,252
	C 150,252 75.0,233.1 90.0,252 S 45.0,270.9 60.0,252 S 0,252 0,252
	z" />
	<path stroke="white" fill="white" d="M 150, 126
	C 150,126 225.0,144.89999999999998 210.0,126 S 255.0,107.1 240.0,126 S 300,126 300,126
	C 300,126 322.5,189.0 300, 176.4 S 277.5,214.2 300,201.6 S 300,252 300,252
	C 300,252 225.0,270.9 240.0,252 S 195.0,233.1 210.0,252 S 150,252 150,252
	C 150,252 127.5,189.0 150, 201.6 S 172.5,163.8 150,176.4 S 150,126 150,126
	z" />
	<path stroke="white" fill="white" d="M 300, 126
	C 300,126 375.0,144.89999999999998 360.0,126 S 405.0,107.1 390.0,126 S 450,126 450,126
	C 450,126 472.5,189.0 450, 176.4 S 427.5,214.2 450,201.6 S 450,252 450,252
	C 450,252 375.0,270.9 390.0,252 S 345.0,233.1 360.0,252 S 300,252 300,252
	C 300,252 322.5,189.0 300, 201.6 S 277.5,163.8 300,176.4 S 300,126 300,126
	z" />
	<path stroke="white" fill="white" d="M 450, 126
	C 450,126 525.0,144.89999999999998 510.0,126 S 555.0,107.1 540.0,126 S 600,126 600,126
	C 600,126 577.5,189.0 600, 176.4 S 622.5,214.2 600,201.6 S 600,252 600,252
	C 600,252 525.0,233.1 540.0,252 S 495.0,270.9 510.0,252 S 450,252 450,252
	C 450,252 472.5,189.0 450, 201.6 S 427.5,163.8 450,176.4 S 450,126 450,126
	z" />
	<path stroke="white" fill="white" d="M 600, 126
	C 600,126 675.0,144.89999999999998 660.0,126 S 705.0,107.1 690.0,126 S 750,126 750,126
	C 750,126 727.5,189.0 750, 176.4 S 772.5,214.2 750,201.6 S 750,252 750,252
	C 750,252 675.0,233.1 690.0,252 S 645.0,270.9 660.0,252 S 600,252 600,252
	C 600,252 577.5,189.0 600, 201.6 S 622.5,163.8 600,176.4 S 600,126 600,126
	z" />
	<path stroke="white" fill="white" d="M 750, 126
	C 750,126 825.0,107.1 810.0,126 S 855.0,144.89999999999998 840.0,126 S 900,126 900,126
	C 900,126 922.5,189.0 900, 176.4 S 877.5,214.2 900,201.6 S 900,252 900,252
	C 900,252 825.0,270.9 840.0,252 S 795.0,233.1 810.0,252 S 750,252 750,252
	C 750,252 727.5,189.0 750, 201.6 S 772.5,163.8 750,176.4 S 750,126 750,126
	z" />
	<path stroke="white" fill="white" d="M 900, 126
	C 900,126 975.0,107.1 960.0,126 S 1005.0,144.89999999999998 990.0,126 S 1050,126 1050,126
	C 1050,126 1027.5,189.0 1050, 176.4 S 1072.5,214.2 1050,201.6 S 1050,252 1050,252
	C 1050,252 975.0,233.1 990.0,252 S 945.0,270.9 960.0,252 S 900,252 900,252
	C 900,252 922.5,189.0 900, 201.6 S 877.5,163.8 900,176.4 S 900,126 900,126
	z" />
	<path stroke="white" fill="white" d="M 1050, 126
	C 1050,126 1125.0,144.89999999999998 1110.0,126 S 1155.0,107.1 1140.0,126 S 1200,126 1200,126
	L 1200,252
	C 1200,252 1125.0,270.9 1140.0,252 S 1095.0,233.1 1110.0,252 S 1050,252 1050,252
	C 1050,252 1027.5,189.0 1050, 201.6 S 1072.5,163.8 1050,176.4 S 1050,126 1050,126
	z" />
	<path stroke="white" fill="white" d="M 0, 252
	C 0,252 75.0,233.1 60.0,252 S 105.0,270.9 90.0,252 S 150,252 150,252
	C 150,252 172.5,315.0 150, 302.4 S 127.5,340.2 150,327.59999999999997 S 150,378 150,378
	C 150,378 75.0,396.9 90.0,378 S 45.0,359.1 60.0,378 S 0,378 0,378
	z" />
	<path stroke="white" fill="white" d="M 150, 252
	C 150,252 225.0,270.9 210.0,252 S 255.0,233.1 240.0,252 S 300,252 300,252
	C 300,252 277.5,315.0 300, 302.4 S 322.5,340.2 300,327.59999999999997 S 300,378 300,378
	C 300,378 225.0,359.1 240.0,378 S 195.0,396.9 210.0,378 S 150,378 150,378
	C 150,378 172.5,315.0 150, 327.59999999999997 S 127.5,289.8 150,302.4 S 150,252 150,252
	z" />
	<path stroke="white" fill="white" d="M 300, 252
	C 300,252 375.0,270.9 360.0,252 S 405.0,233.1 390.0,252 S 450,252 450,252
	C 450,252 472.5,315.0 450, 302.4 S 427.5,340.2 450,327.59999999999997 S 450,378 450,378
	C 450,378 375.0,396.9 390.0,378 S 345.0,359.1 360.0,378 S 300,378 300,378
	C 300,378 277.5,315.0 300, 327.59999999999997 S 322.5,289.8 300,302.4 S 300,252 300,252
	z" />
	<path stroke="white" fill="white" d="M 450, 252
	C 450,252 525.0,233.1 510.0,252 S 555.0,270.9 540.0,252 S 600,252 600,252
	C 600,252 577.5,315.0 600, 302.4 S 622.5,340.2 600,327.59999999999997 S 600,378 600,378
	C 600,378 525.0,359.1 540.0,378 S 495.0,396.9 510.0,378 S 450,378 450,378
	C 450,378 472.5,315.0 450, 327.59999999999997 S 427.5,289.8 450,302.4 S 450,252 450,252
	z" />
	<path stroke="white" fill="white" d="M 600, 252
	C 600,252 675.0,233.1 660.0,252 S 705.0,270.9 690.0,252 S 750,252 750,252
	C 750,252 727.5,315.0 750, 302.4 S 772.5,340.2 750,327.59999999999997 S 750,378 750,378
	C 750,378 675.0,359.1 690.0,378 S 645.0,396.9 660.0,378 S 600,378 600,378
	C 600,378 577.5,315.0 600, 327.59999999999997 S 622.5,289.8 600,302.4 S 600,252 600,252
	z" />
	<path stroke="white" fill="white" d="M 750, 252
	C 750,252 825.0,270.9 810.0,252 S 855.0,233.1 840.0,252 S 900,252 900,252
	C 900,252 877.5,315.0 900, 302.4 S 922.5,340.2 900,327.59999999999997 S 900,378 900,378
	C 900,378 825.0,359.1 840.0,378 S 795.0,396.9 810.0,378 S 750,378 750,378
	C 750,378 727.5,315.0 750, 327.59999999999997 S 772.5,289.8 750,302.4 S 750,252 750,252
	z" />
	<path stroke="white" fill="white" d="M 900, 252
	C 900,252 975.0,233.1 960.0,252 S 1005.0,270.9 990.0,252 S 1050,252 1050,252
	C 1050,252 1072.5,315.0 1050, 302.4 S 1027.5,340.2 1050,327.59999999999997 S 1050,378 1050,378
	C 1050,378 975.0,396.9 990.0,378 S 945.0,359.1 960.0,378 S 900,378 900,378
	C 900,378 877.5,315.0 900, 327.59999999999997 S 922.5,289.8 900,302.4 S 900,252 900,252
	z" />
	<path stroke="white" fill="white" d="M 1050, 252
	C 1050,252 1125.0,270.9 1110.0,252 S 1155.0,233.1 1140.0,252 S 1200,252 1200,252
	L 1200,378
	C 1200,378 1125.0,359.1 1140.0,378 S 1095.0,396.9 1110.0,378 S 1050,378 1050,378
	C 1050,378 1072.5,315.0 1050, 327.59999999999997 S 1027.5,289.8 1050,302.4 S 1050,252 1050,252
	z" />
	<path stroke="white" fill="white" d="M 0, 378
	C 0,378 75.0,396.9 60.0,378 S 105.0,359.1 90.0,378 S 150,378 150,378
	C 150,378 172.5,441.0 150, 428.4 S 127.5,466.2 150,453.59999999999997 S 150,504 150,504
	C 150,504 75.0,522.9 90.0,504 S 45.0,485.1 60.0,504 S 0,504 0,504
	z" />
	<path stroke="white" fill="white" d="M 150, 378
	C 150,378 225.0,359.1 210.0,378 S 255.0,396.9 240.0,378 S 300,378 300,378
	C 300,378 322.5,441.0 300, 428.4 S 277.5,466.2 300,453.59999999999997 S 300,504 300,504
	C 300,504 225.0,522.9 240.0,504 S 195.0,485.1 210.0,504 S 150,504 150,504
	C 150,504 172.5,441.0 150, 453.59999999999997 S 127.5,415.8 150,428.4 S 150,378 150,378
	z" />
	<path stroke="white" fill="white" d="M 300, 378
	C 300,378 375.0,396.9 360.0,378 S 405.0,359.1 390.0,378 S 450,378 450,378
	C 450,378 472.5,441.0 450, 428.4 S 427.5,466.2 450,453.59999999999997 S 450,504 450,504
	C 450,504 375.0,522.9 390.0,504 S 345.0,485.1 360.0,504 S 300,504 300,504
	C 300,504 322.5,441.0 300, 453.59999999999997 S 277.5,415.8 300,428.4 S 300,378 300,378
	z" />
	<path stroke="white" fill="white" d="M 450, 378
	C 450,378 525.0,359.1 510.0,378 S 555.0,396.9 540.0,378 S 600,378 600,378
	C 600,378 577.5,441.0 600, 428.4 S 622.5,466.2 600,453.59999999999997 S 600,504 600,504
	C 600,504 525.0,485.1 540.0,504 S 495.0,522.9 510.0,504 S 450,504 450,504
	C 450,504 472.5,441.0 450, 453.59999999999997 S 427.5,415.8 450,428.4 S 450,378 450,378
	z" />
	<path stroke="white" fill="white" d="M 600, 378
	C 600,378 675.0,359.1 660.0,378 S 705.0,396.9 690.0,378 S 750,378 750,378
	C 750,378 727.5,441.0 750, 428.4 S 772.5,466.2 750,453.59999999999997 S 750,504 750,504
	C 750,504 675.0,485.1 690.0,504 S 645.0,522.9 660.0,504 S 600,504 600,504
	C 600,504 577.5,441.0 600, 453.59999999999997 S 622.5,415.8 600,428.4 S 600,378 600,378
	z" />
	<path stroke="white" fill="white" d="M 750, 378
	C 750,378 825.0,359.1 810.0,378 S 855.0,396.9 840.0,378 S 900,378 900,378
	C 900,378 922.5,441.0 900, 428.4 S 877.5,466.2 900,453.59999999999997 S 900,504 900,504
	C 900,504 825.0,522.9 840.0,504 S 795.0,485.1 810.0,504 S 750,504 750,504
	C 750,504 727.5,441.0 750, 453.59999999999997 S 772.5,415.8 750,428.4 S 750,378 750,378
	z" />
	<path stroke="white" fill="white" d="M 900, 378
	C 900,378 975.0,396.9 960.0,378 S 1005.0,359.1 990.0,378 S 1050,378 1050,378
	C 1050,378 1072.5,441.0 1050, 428.4 S 1027.5,466.2 1050,453.59999999999997 S 1050,504 1050,504
	C 1050,504 975.0,522.9 990.0,504 S 945.0,485.1 960.0,504 S 900,504 900,504
	C 900,504 922.5,441.0 900, 453.59999999999997 S 877.5,415.8 900,428.4 S 900,378 900,378
	z" />
	<path stroke="white" fill="white" d="M 1050, 378
	C 1050,378 1125.0,359.1 1110.0,378 S 1155.0,396.9 1140.0,378 S 1200,378 1200,378
	L 1200,504
	C 1200,504 1125.0,485.1 1140.0,504 S 1095.0,522.9 1110.0,504 S 1050,504 1050,504
	C 1050,504 1072.5,441.0 1050, 453.59999999999997 S 1027.5,415.8 1050,428.4 S 1050,378 1050,378
	z" />
	<path stroke="white" fill="white" d="M 0, 504
	C 0,504 75.0,522.9 60.0,504 S 105.0,485.1 90.0,504 S 150,504 150,504
	C 150,504 127.5,567.0 150, 554.4 S 172.5,592.2 150,579.5999999999999 S 150,630 150,630
	L 0,630
	z" />
	<path stroke="white" fill="white" d="M 150, 504
	C 150,504 225.0,522.9 210.0,504 S 255.0,485.1 240.0,504 S 300,504 300,504
	C 300,504 277.5,567.0 300, 554.4 S 322.5,592.2 300,579.5999999999999 S 300,630 300,630
	L 150,630
	C 150,630 127.5,567.0 150, 579.5999999999999 S 172.5,541.8 150,554.4 S 150,504 150,504
	z" />
	<path stroke="white" fill="white" d="M 300, 504
	C 300,504 375.0,522.9 360.0,504 S 405.0,485.1 390.0,504 S 450,504 450,504
	C 450,504 427.5,567.0 450, 554.4 S 472.5,592.2 450,579.5999999999999 S 450,630 450,630
	L 300,630
	C 300,630 277.5,567.0 300, 579.5999999999999 S 322.5,541.8 300,554.4 S 300,504 300,504
	z" />
	<path stroke="white" fill="white" d="M 450, 504
	C 450,504 525.0,485.1 510.0,504 S 555.0,522.9 540.0,504 S 600,504 600,504
	C 600,504 577.5,567.0 600, 554.4 S 622.5,592.2 600,579.5999999999999 S 600,630 600,630
	L 450,630
	C 450,630 427.5,567.0 450, 579.5999999999999 S 472.5,541.8 450,554.4 S 450,504 450,504
	z" />
	<path stroke="white" fill="white" d="M 600, 504
	C 600,504 675.0,485.1 660.0,504 S 705.0,522.9 690.0,504 S 750,504 750,504
	C 750,504 727.5,567.0 750, 554.4 S 772.5,592.2 750,579.5999999999999 S 750,630 750,630
	L 600,630
	C 600,630 577.5,567.0 600, 579.5999999999999 S 622.5,541.8 600,554.4 S 600,504 600,504
	z" />
	<path stroke="white" fill="white" d="M 750, 504
	C 750,504 825.0,522.9 810.0,504 S 855.0,485.1 840.0,504 S 900,504 900,504
	C 900,504 877.5,567.0 900, 554.4 S 922.5,592.2 900,579.5999999999999 S 900,630 900,630
	L 750,630
	C 750,630 727.5,567.0 750, 579.5999999999999 S 772.5,541.8 750,554.4 S 750,504 750,504
	z" />
	<path stroke="white" fill="white" d="M 900, 504
	C 900,504 975.0,522.9 960.0,504 S 1005.0,485.1 990.0,504 S 1050,504 1050,504
	C 1050,504 1072.5,567.0 1050, 554.4 S 1027.5,592.2 1050,579.5999999999999 S 1050,630 1050,630
	L 900,630
	C 900,630 877.5,567.0 900, 579.5999999999999 S 922.5,541.8 900,554.4 S 900,504 900,504
	z" />
	<path stroke="white" fill="white" d="M 1050, 504
	C 1050,504 1125.0,485.1 1110.0,504 S 1155.0,522.9 1140.0,504 S 1200,504 1200,504
	L 1200,630
	L 1050,630
	C 1050,630 1072.5,567.0 1050, 579.5999999999999 S 1027.5,541.8 1050,554.4 S 1050,504 1050,504
	z" />
</svg>
    